# xmcd CD database file
#
# Track frame offsets:
#	150
#	15335
#	33951
#	54615
#	67102
#	81635
#	99550
#	117402
#	132840
#	148785
#	162400
#	179985
#	199473
#
# Disc length: 2938 seconds
#
# Revision: 0
# Processed by: cddbd v1.5.1PL0 Copyright (c) Steve Scherf et al.
# Submitted via: CDex 1.51
#
DISCID=c80b780d
DTITLE=Little Roger and The Houserockers - No Kiddin'
DYEAR=1999
DGENRE=Blues
TTITLE0=Gonna Find My Baby
TTITLE1=Fell Like Having A Ball
TTITLE2=High Society
TTITLE3=Walking With Walter
TTITLE4=You Done Tore Your Playhouse Down
TTITLE5=Sweet and Sour Baby
TTITLE6=Y2K
TTITLE7=In An Evil Mood (You're Gonna Need My Help)
TTITLE8=Keep Her In Your Sight
TTITLE9=Attitude Blues
TTITLE10=Gonna Be Nice To Me
TTITLE11=Killing Me
TTITLE12=Bombshell Boogie
EXTD=YEAR: 1999
EXTT0=
EXTT1=
EXTT2=
EXTT3=
EXTT4=
EXTT5=
EXTT6=
EXTT7=
EXTT8=
EXTT9=
EXTT10=
EXTT11=
EXTT12=
PLAYORDER=
